<?xml version="1.0" standalone="no"?>
<!DOCTYPE svg PUBLIC "-//W3C//DTD SVG 20010904//EN"
 "http://www.w3.org/TR/2001/REC-SVG-20010904/DTD/svg10.dtd">
<svg version="1.0" xmlns="http://www.w3.org/2000/svg"
 width="431.000000pt" height="143.000000pt" viewBox="0 0 431.000000 143.000000"
 preserveAspectRatio="xMidYMid meet">
<metadata>
Created by potrace 1.16, written by Peter Selinger 2001-2019
</metadata>
<g transform="translate(0.000000,143.000000) scale(0.100000,-0.100000)"
fill="#000000" stroke="none">
<path d="M1348 912 c-28 -6 -21 -20 17 -32 36 -12 65 -8 65 8 0 11 -60 29 -82
24z"/>
<path d="M1248 883 c-29 -7 -20 -21 21 -34 27 -8 44 -8 57 -1 16 9 14 12 -20
26 -21 9 -39 15 -40 15 0 -1 -9 -3 -18 -6z"/>
<path d="M1140 840 c-9 -6 -10 -10 -3 -10 6 0 11 -10 11 -22 -5 -86 13 -98 72
-48 l35 29 -27 1 c-39 0 -43 16 -5 25 l32 7 -30 14 c-36 16 -65 17 -85 4z"/>
<path d="M1722 830 c-61 -57 -25 -160 56 -160 37 0 75 17 67 30 -3 4 -23 6
-45 3 -51 -7 -70 8 -70 57 0 49 19 64 69 56 44 -7 63 7 32 23 -32 18 -85 13
-109 -9z"/>
<path d="M1900 760 l0 -90 61 0 c44 0 60 3 57 13 -3 6 -23 13 -46 15 l-42 3 0
75 c0 59 -3 74 -15 74 -12 0 -15 -17 -15 -90z"/>
<path d="M2060 761 c0 -85 1 -91 20 -91 20 0 21 5 18 87 -3 74 -6 88 -20 91
-16 3 -18 -6 -18 -87z"/>
<path d="M2150 760 c0 -73 3 -90 15 -90 10 0 15 10 15 29 0 25 5 30 35 35 42
8 65 30 65 60 0 36 -30 56 -83 56 l-47 0 0 -90z m94 44 c9 -23 -2 -34 -35 -34
-24 0 -29 4 -29 25 0 21 5 25 29 25 17 0 31 -6 35 -16z"/>
<path d="M2342 838 c-13 -13 -16 -47 -4 -64 4 -6 22 -19 40 -28 40 -21 43 -46
4 -46 -15 0 -33 5 -39 11 -8 8 -13 8 -18 -1 -12 -20 16 -40 56 -40 30 0 42 5
55 25 15 23 15 27 1 48 -9 13 -29 30 -47 37 -38 16 -34 35 8 35 36 0 52 12 32
25 -21 14 -74 12 -88 -2z"/>
<path d="M2500 760 l0 -90 60 0 c47 0 60 3 60 15 0 11 -12 15 -46 15 -41 0
-45 2 -42 23 2 18 10 23 41 25 53 5 51 32 -3 32 -33 0 -40 3 -40 20 0 17 7 20
45 20 33 0 45 4 45 15 0 12 -13 15 -60 15 l-60 0 0 -90z"/>
<path d="M2670 760 c0 -72 3 -90 15 -90 10 0 15 15 17 58 l3 57 44 -57 c62
-82 71 -78 71 32 0 83 -1 90 -20 90 -18 0 -20 -7 -20 -57 l0 -57 -42 57 c-24
31 -49 56 -55 57 -10 0 -13 -24 -13 -90z"/>
<path d="M2885 826 c-21 -31 -6 -63 36 -78 37 -13 41 -48 5 -48 -14 0 -28 5
-31 10 -5 8 -12 7 -22 -1 -13 -11 -13 -14 3 -26 24 -18 79 -16 98 3 31 31 17
69 -36 93 -38 19 -35 36 7 37 46 1 48 3 35 19 -20 25 -77 19 -95 -9z"/>
<path d="M3040 760 l0 -90 60 0 c47 0 60 3 60 15 0 11 -12 15 -46 15 -41 0
-45 2 -42 23 2 18 10 23 41 25 53 5 51 32 -3 32 -33 0 -40 3 -40 20 0 17 7 20
45 20 33 0 45 4 45 15 0 12 -13 15 -60 15 l-60 0 0 -90z"/>
<path d="M1276 769 c-14 -11 -26 -25 -26 -30 0 -19 41 -8 72 21 l33 29 -26 1
c-15 0 -38 -9 -53 -21z"/>
<path d="M1378 767 c-16 -13 -28 -26 -28 -30 0 -17 38 -4 70 23 34 29 34 29
10 29 -14 0 -37 -10 -52 -22z"/>
<path d="M96 19 c-65 -15 -55 -19 50 -18 60 0 91 3 79 8 -37 15 -90 19 -129
10z"/>
<path d="M1740 15 c-11 -13 -6 -15 35 -15 41 0 46 2 35 15 -7 8 -23 15 -35 15
-12 0 -28 -7 -35 -15z"/>
<path d="M2420 10 c-10 -7 13 -10 75 -9 59 0 83 3 70 9 -28 12 -127 12 -145 0z"/>
<path d="M2895 10 c-13 -6 13 -9 75 -9 62 0 88 3 75 9 -26 11 -124 11 -150 0z"/>
<path d="M733 3 c15 -2 39 -2 55 0 15 2 2 4 -28 4 -30 0 -43 -2 -27 -4z"/>
<path d="M3243 3 c15 -2 37 -2 50 0 12 2 0 4 -28 4 -27 0 -38 -2 -22 -4z"/>
</g>
</svg>
